# xmcd
#
# Track frame offsets:
# 150
# 12364
# 24073
# 34659
# 48294
# 59762
# 71725
# 81776
# 95183
# 107191
# 119979
# 133241
# 146094
# 156241
# 167438
# 181292
# 191314
# 203708
# 216461
# 228187
# 241344
# 251603
# 267042
# 277846
#
# Disc length: 3845 seconds
#
# Revision: 0
# Processed by: cddbd v1.5.2PL0 Copyright (c) Steve Scherf et al.
# Submitted via: Axialis_AX_CDPlayer 2.6
#
DISCID=5d0f0318
DTITLE=Porter Wagoner - The Cold Hard Facts Of Life [CD1 of 3)
DYEAR=1900
DGENRE=
TTITLE0=Men With Broken Hearts
TTITLE1=I Just Came To Smell The Flowers
TTITLE2=May You Never Be Alone
TTITLE3=Skid Row Joe
TTITLE4=Take Me Back And Try Me One More Time
TTITLE5=How Far Down Can I Go
TTITLE6=I'm A Long Way From Home
TTITLE7=Confessions Of A Broken Man
TTITLE8=My Tears Are Overdue
TTITLE9=I've Been Down That Road Before
TTITLE10=Thy Burdens Are Greater Than Mine
TTITLE11=My Last Two Tens
TTITLE12=Boston Jail
TTITLE13=The Convict And The Rose
TTITLE14=I Relived My Life Today
TTITLE15=I'm Just Here To Get My Baby Out Of Jail
TTITLE16=Let Me In
TTITLE17=The Big River Train
TTITLE18=The Snakes Crawl At Night
TTITLE19=They're All Going Home But One
TTITLE20=Folsom Prison
TTITLE21=Soul Of A Convict
TTITLE22=Green, Green Grass Of Home
TTITLE23=(I Heard That) Lonesome Whistle
EXTD=www.porterwagoner.com
EXTT0=
EXTT1=
EXTT2=
EXTT3=
EXTT4=
EXTT5=
EXTT6=
EXTT7=
EXTT8=
EXTT9=
EXTT10=
EXTT11=
EXTT12=
EXTT13=
EXTT14=
EXTT15=
EXTT16=
EXTT17=
EXTT18=
EXTT19=
EXTT20=
EXTT21=
EXTT22=
EXTT23=
PLAYORDER=
